<svg width="22" height="22" viewBox="0 0 22 22" fill="none" xmlns="http://www.w3.org/2000/svg">
<path d="M20.292 0.5C20.6448 0.500067 20.902 0.609169 21.1045 0.811523C21.3071 1.01415 21.417 1.27184 21.417 1.625C21.417 1.97816 21.3071 2.23585 21.1045 2.43848L12.585 10.958L12.9385 11.3115L21.1045 19.4785C21.3071 19.6811 21.417 19.9388 21.417 20.292C21.4169 20.645 21.3071 20.9019 21.1045 21.1045C20.9019 21.3071 20.645 21.4169 20.292 21.417C19.9388 21.417 19.6811 21.3071 19.4785 21.1045L11.3115 12.9385L10.958 12.585L2.43848 21.1045C2.23585 21.3071 1.97816 21.417 1.625 21.417C1.27184 21.417 1.01415 21.3071 0.811523 21.1045C0.609169 20.902 0.500067 20.6448 0.5 20.292C0.5 19.9389 0.609002 19.6811 0.811523 19.4785L9.33203 10.958L8.97852 10.6045L0.811523 2.43848C0.608899 2.23585 0.5 1.97816 0.5 1.625C0.5 1.27184 0.608899 1.01415 0.811523 0.811523C1.01415 0.608899 1.27184 0.5 1.625 0.5C1.97816 0.5 2.23585 0.608899 2.43848 0.811523L10.6045 8.97852L10.958 9.33203L19.4785 0.811523C19.6811 0.609002 19.9389 0.5 20.292 0.5Z" fill="black" stroke="black"/>
</svg>
