<svg width="18" height="19" viewBox="0 0 18 19" fill="none" xmlns="http://www.w3.org/2000/svg">
<path d="M15.378 2.62562C13.7558 1.00345 11.515 0 9.0395 0C4.08918 0 0.0753794 4.0132 0.0753794 8.96412C0.0753794 10.6116 0.519816 12.1548 1.29472 13.4815L1.2718 13.4392L0 18.0838L4.75132 16.8373C5.98814 17.5242 7.46377 17.9282 9.03407 17.9282H9.03769C13.988 17.9264 18 13.9126 18 8.96231C18 6.48806 16.9978 4.24838 15.3774 2.62622L15.378 2.62562ZM9.03769 16.414H9.03467C7.63624 16.414 6.32705 16.0281 5.20962 15.3569L5.24339 15.3756L4.97142 15.2146L2.15223 15.9545L2.90422 13.2053L2.72693 12.9236C2.01233 11.8008 1.58779 10.4325 1.58779 8.96472C1.58779 4.85082 4.92318 1.51543 9.03709 1.51543C13.151 1.51543 16.4864 4.85082 16.4864 8.96472C16.4864 13.0786 13.1522 16.414 9.03769 16.414ZM13.1239 10.8353C12.9001 10.7232 11.799 10.1823 11.594 10.1069C11.3883 10.0321 11.2388 9.99531 11.0892 10.2196C10.9409 10.4434 10.5115 10.9475 10.3806 11.0971C10.2504 11.2472 10.1189 11.2653 9.8952 11.1537C9.20171 10.8727 8.60592 10.4982 8.08791 10.0369L8.09394 10.0423C7.61211 9.5961 7.19904 9.08533 6.86556 8.5221L6.84867 8.49074C6.71842 8.26701 6.8348 8.1458 6.94636 8.03424C7.04707 7.93414 7.17069 7.77252 7.28225 7.64227C7.3703 7.53432 7.44568 7.4107 7.50296 7.27803L7.50658 7.26778C7.53251 7.21532 7.54759 7.15441 7.54759 7.08928C7.54759 7.01029 7.52528 6.93672 7.48668 6.874L7.48789 6.87581C7.4312 6.76364 6.98375 5.6613 6.79741 5.21264C6.6153 4.77604 6.43016 4.83574 6.29328 4.8285C6.16302 4.82247 6.01347 4.82127 5.86391 4.82127C5.62572 4.8273 5.41405 4.93464 5.26812 5.10047L5.26751 5.10168C4.78388 5.56059 4.48357 6.20765 4.48357 6.92465C4.48357 6.94033 4.48357 6.95662 4.48417 6.97229V6.96988C4.56317 7.85454 4.89484 8.64873 5.40501 9.29579L5.39777 9.28674C6.36504 10.7214 7.65433 11.8689 9.16734 12.642L9.22403 12.668C9.55449 12.8175 9.97782 12.9773 10.4108 13.1142L10.5007 13.1389C10.7672 13.2234 11.0741 13.2722 11.3925 13.2722C11.5753 13.2722 11.755 13.2559 11.9286 13.2252L11.9099 13.2276C12.5546 13.0931 13.0895 12.7041 13.4157 12.1729L13.4212 12.1626C13.5207 11.9419 13.5785 11.6844 13.5785 11.4136C13.5785 11.3021 13.5689 11.1929 13.5502 11.0868L13.552 11.0983C13.4965 11.0048 13.347 10.9493 13.1227 10.8365L13.1239 10.8353Z" fill="white"/>
</svg>
