<svg width="43" height="43" viewBox="0 0 43 43" fill="none" xmlns="http://www.w3.org/2000/svg">
<path d="M10.5183 21.3333H6.96278C6.01979 21.3333 5.11542 20.9586 4.44862 20.2919C3.78183 19.6251 3.40723 18.7207 3.40723 17.7777V8.88881C3.40723 7.94582 3.78183 7.04145 4.44862 6.37465C5.11542 5.70785 6.01979 5.33325 6.96278 5.33325H35.4072C36.3502 5.33325 37.2546 5.70785 37.9214 6.37465C38.5882 7.04145 38.9628 7.94582 38.9628 8.88881V17.7777C38.9628 18.7207 38.5882 19.6251 37.9214 20.2919C37.2546 20.9586 36.3502 21.3333 35.4072 21.3333H31.8517M10.5183 14.2221H31.8517M32.385 31.4666C33.1372 32.2531 33.5747 33.2882 33.6146 34.3757C33.6544 35.4632 33.2939 36.5276 32.6013 37.367C31.9087 38.2064 30.9322 38.7626 29.8569 38.93C28.7816 39.0975 27.6823 38.8646 26.7672 38.2755C26.1723 37.8853 25.6784 37.3596 25.3261 36.7416C24.9738 36.1235 24.7731 35.4306 24.7406 34.7199V21.3333M11.5851 27.7333C11.165 28.1451 10.8537 28.6548 10.679 29.2166C10.5044 29.7784 10.4719 30.3747 10.5844 30.9522C10.697 31.5296 10.951 32.0701 11.3238 32.5252C11.6966 32.9803 12.1766 33.3358 12.7205 33.5598C13.2645 33.7838 13.8556 33.8693 14.4408 33.8087C15.026 33.7481 15.587 33.5432 16.0735 33.2124C16.56 32.8816 16.9568 32.4353 17.2284 31.9134C17.5 31.3915 17.6378 30.8104 17.6295 30.2221V21.3333" stroke="#8C8077" stroke-width="3.55556" stroke-linecap="round" stroke-linejoin="round"/>
</svg>
