<svg width="43" height="43" viewBox="0 0 43 43" fill="none" xmlns="http://www.w3.org/2000/svg">
<g clip-path="url(#clip0_318_2120)">
<path d="M34.2219 14.2222H9.33301C9.33301 17.0511 10.4568 19.7643 12.4572 21.7646C14.4576 23.765 17.1707 24.8888 19.9997 24.8888H23.5552C26.3162 24.8908 28.9705 23.822 30.9597 21.9074C32.949 19.9927 34.1184 17.3812 34.2219 14.6222V14.2222Z" stroke="#8C8077" stroke-width="3.55556" stroke-linecap="round" stroke-linejoin="round"/>
<path d="M30.6669 35.5554C29.7239 35.5554 28.8195 35.1808 28.1527 34.514C27.4859 33.8473 27.1113 32.9429 27.1113 31.9999C27.1113 31.0569 27.4859 30.1525 28.1527 29.4857C28.8195 28.8189 29.7239 28.4443 30.6669 28.4443C31.6099 28.4443 32.5142 28.8189 33.181 29.4857C33.8478 30.1525 34.2224 31.0569 34.2224 31.9999C34.2224 32.9429 33.8478 33.8473 33.181 34.514C32.5142 35.1808 31.6099 35.5554 30.6669 35.5554Z" stroke="#8C8077" stroke-width="3.55556" stroke-linecap="round" stroke-linejoin="round"/>
<path d="M27.1113 24.8889L28.8891 28.4445" stroke="#8C8077" stroke-width="3.55556" stroke-linecap="round" stroke-linejoin="round"/>
<path d="M16.4447 24.8889L11.1113 35.5556" stroke="#8C8077" stroke-width="3.55556" stroke-linecap="round" stroke-linejoin="round"/>
<path d="M27.1109 32H12.8887" stroke="#8C8077" stroke-width="3.55556" stroke-linecap="round" stroke-linejoin="round"/>
<path d="M27.1113 8.88886V7.11108" stroke="#8C8077" stroke-width="3.55556" stroke-linecap="round" stroke-linejoin="round"/>
<path d="M21.7783 8.88886V7.11108" stroke="#8C8077" stroke-width="3.55556" stroke-linecap="round" stroke-linejoin="round"/>
<path d="M16.4443 8.88886V7.11108" stroke="#8C8077" stroke-width="3.55556" stroke-linecap="round" stroke-linejoin="round"/>
</g>
<defs>
<clipPath id="clip0_318_2120">
<rect width="42.6667" height="42.6667" fill="white"/>
</clipPath>
</defs>
</svg>
