<svg width="43" height="43" viewBox="0 0 43 43" fill="none" xmlns="http://www.w3.org/2000/svg">
<path d="M17.9253 14.2221H10.8142L9.03646 12.4444L7.25868 14.2221H3.70312C3.70312 9.31547 8.07646 5.33325 13.4809 5.33325C18.8853 5.33325 23.2587 9.31547 23.2587 14.2221C24.1476 17.7777 28.592 29.3333 25.0365 39.111H17.9253C19.4009 35.5555 20.592 31.9999 19.7031 27.5555M23.2587 12.6931C25.0589 11.3621 27.2422 10.651 29.4809 10.6664C34.8853 10.6664 39.2587 14.6486 39.2587 19.5553H33.9253L32.1476 17.7775L30.3698 19.5553H25.0365M10.6188 17.2621C6.79662 21.0843 6.52995 26.9865 9.99662 30.471L17.5344 22.9154L23.8099 16.6399C20.3433 13.1554 14.4411 13.4399 10.6188 17.2621Z" stroke="#8C8077" stroke-width="3.55556" stroke-linecap="round" stroke-linejoin="round"/>
</svg>
