<svg width="43" height="43" viewBox="0 0 43 43" fill="none" xmlns="http://www.w3.org/2000/svg">
<g clip-path="url(#clip0_318_2168)">
<g clip-path="url(#clip1_318_2168)">
<path d="M42.1215 33.3176L40.2216 24.4679C40.18 24.2741 40.1007 24.0904 39.9881 23.9272C39.8755 23.7641 39.7319 23.6247 39.5654 23.5171C39.399 23.4095 39.213 23.3357 39.018 23.2999C38.823 23.2642 38.6229 23.2672 38.429 23.3089L35.1414 24.017C35.8968 22.4236 36.3355 20.6986 36.4332 18.9379C36.7295 13.4565 33.1835 3.48808 22.3949 0.0706429C22.1541 -0.00606054 21.8978 -0.0210072 21.6497 0.0271503C21.4015 0.0753078 21.1695 0.185037 20.9748 0.346265C20.7801 0.507493 20.629 0.715039 20.5355 0.949863C20.4419 1.18469 20.4089 1.43925 20.4394 1.69018C20.4441 1.72751 20.8352 5.45013 18.9485 7.80802L18.5585 8.30165C18.1437 8.8249 17.7615 9.30904 17.3277 9.77304C17.1333 8.93288 17.0756 8.06685 17.1571 7.20833C17.1918 6.95607 17.1622 6.69912 17.0709 6.4614C16.9796 6.22367 16.8297 6.01291 16.635 5.84872C16.4404 5.68454 16.2073 5.57227 15.9576 5.52237C15.7079 5.47247 15.4497 5.48655 15.2069 5.56331C6.67779 8.2655 3.89917 16.6067 4.15102 21.2301C4.19064 21.9308 4.29641 22.6262 4.46688 23.3071L4.2405 23.2591C4.04672 23.2173 3.84661 23.2141 3.65161 23.2497C3.4566 23.2854 3.27054 23.3591 3.10405 23.4667C2.93756 23.5743 2.7939 23.7136 2.68132 23.8768C2.56873 24.04 2.48942 24.2237 2.44792 24.4176L0.548098 33.2672C0.464368 33.6584 0.539299 34.0668 0.756393 34.4027C0.973487 34.7387 1.31503 34.9748 1.70603 35.0592L2.8912 35.3146L4.21323 41.4775C4.28666 41.8148 4.47346 42.1167 4.74248 42.333C5.01151 42.5493 5.34653 42.6669 5.69173 42.6662C5.79834 42.6662 5.90465 42.6547 6.00878 42.6318L21.4503 39.308L36.6602 42.5815C36.7646 42.6036 36.8711 42.6149 36.9778 42.6152C37.3228 42.6149 37.6572 42.4965 37.9256 42.2797C38.1939 42.0629 38.38 41.7608 38.4528 41.4236L39.7523 35.3697L40.9629 35.109C41.3539 35.0246 41.6953 34.7886 41.9125 34.4528C42.1297 34.117 42.2048 33.7087 42.1215 33.3176ZM38.4569 30.6237L28.6247 28.5034L37.5906 26.5746L38.4569 30.6237ZM20.9312 10.1671L21.3069 9.69303C22.5989 7.95134 23.3462 5.86607 23.4545 3.70022C30.6976 6.97129 33.6665 14.2482 33.4205 18.7738C33.3073 21.0238 32.4644 23.1757 31.0194 24.9041L22.552 26.7257C23.6817 25.0683 24.2541 23.0942 24.1863 21.0896C24.0779 18.1658 21.6506 15.5093 19.701 13.3742C19.4166 13.0631 19.141 12.7614 18.8844 12.4723C19.6289 11.7614 20.3135 10.9904 20.9312 10.1671ZM7.1649 21.0653C7.01083 18.2304 8.59717 12.0705 14.1793 9.23141C14.3248 10.8096 14.909 12.3157 15.8658 13.5792C16.3322 14.1617 16.8863 14.7685 17.4729 15.4109C19.0907 17.1815 21.1037 19.3847 21.1712 21.2022C21.1966 22.1888 20.999 23.1683 20.5932 24.0679C20.1874 24.9675 19.5839 25.764 18.8276 26.398L7.92755 24.052C7.48398 23.1146 7.22505 22.1006 7.1649 21.0653ZM6.85085 39.3649L6.13085 36.0109L14.2842 37.7655L6.85085 39.3649ZM35.8205 39.3151L3.81679 32.4263L5.08316 26.526L37.0869 33.4148L35.8205 39.3151Z" fill="#8C8077"/>
</g>
</g>
<defs>
<clipPath id="clip0_318_2168">
<rect width="42.6667" height="42.6667" fill="white"/>
</clipPath>
<clipPath id="clip1_318_2168">
<rect width="42.6667" height="42.6667" fill="white"/>
</clipPath>
</defs>
</svg>
