<svg width="43" height="43" viewBox="0 0 43 43" fill="none" xmlns="http://www.w3.org/2000/svg">
<g clip-path="url(#clip0_318_2190)">
<path d="M5.11957 2.56006C4.33735 2.56006 3.64207 2.88412 3.20124 3.38006C2.7604 3.876 2.55957 4.50376 2.55957 5.12006C2.55957 5.73635 2.7604 6.36412 3.20124 6.86006C3.64207 7.356 4.33735 7.68006 5.11957 7.68006C5.90179 7.68006 6.59707 7.356 7.0379 6.86006C7.47874 6.36412 7.67957 5.73635 7.67957 5.12006C7.67957 4.50376 7.47874 3.876 7.0379 3.38006C6.59707 2.88412 5.90179 2.56006 5.11957 2.56006ZM36.6929 3.41339C35.6262 3.41339 34.7176 3.84412 34.1346 4.50006C33.5515 5.156 33.2796 5.9971 33.2796 6.82673C33.2796 7.65635 33.5515 8.49745 34.1346 9.15339C34.7176 9.80933 35.6262 10.2401 36.6929 10.2401C37.7596 10.2401 38.6682 9.80933 39.2512 9.15339C39.8343 8.49745 40.1062 7.65635 40.1062 6.82673C40.1062 5.9971 39.8343 5.156 39.2512 4.50006C38.6682 3.84412 37.7596 3.41339 36.6929 3.41339ZM5.11957 4.26673C5.47513 4.26673 5.63319 4.36933 5.76124 4.51339C5.88929 4.65745 5.9729 4.88302 5.9729 5.12006C5.9729 5.3571 5.88929 5.58267 5.76124 5.72673C5.63319 5.87078 5.47513 5.97339 5.11957 5.97339C4.76402 5.97339 4.60596 5.87078 4.4779 5.72673C4.34985 5.58267 4.26624 5.3571 4.26624 5.12006C4.26624 4.88302 4.34985 4.65745 4.4779 4.51339C4.60596 4.36933 4.76402 4.26673 5.11957 4.26673ZM36.6929 5.12006C37.3329 5.12006 37.7043 5.32933 37.9746 5.63339C38.2448 5.93745 38.3996 6.37635 38.3996 6.82673C38.3996 7.2771 38.2448 7.716 37.9746 8.02006C37.7043 8.32412 37.3329 8.53339 36.6929 8.53339C36.0529 8.53339 35.6815 8.32412 35.4112 8.02006C35.141 7.716 34.9862 7.2771 34.9862 6.82673C34.9862 6.37635 35.141 5.93745 35.4112 5.63339C35.6815 5.32933 36.0529 5.12006 36.6929 5.12006ZM21.3329 5.97339C18.0433 5.97339 14.9938 6.97733 12.4362 8.67006C11.7857 8.07245 10.8831 7.68006 9.8129 7.68006C8.60402 7.68006 7.58874 8.16412 6.93457 8.90006C6.2804 9.636 5.9729 10.5838 5.9729 11.5201C5.9729 12.4564 6.2804 13.4041 6.93457 14.1401C7.00319 14.2173 7.09153 14.2787 7.1679 14.3501C5.87238 16.6761 5.11957 19.3415 5.11957 22.1867C5.11957 29.3342 9.77462 35.4055 16.2079 37.5567C15.8836 36.9082 15.6445 36.2058 15.5062 35.4617C10.4025 33.2123 6.82624 28.1131 6.82624 22.1867C6.82624 19.6498 7.49366 17.2707 8.64457 15.1951C9.00722 15.2998 9.39783 15.3601 9.8129 15.3601C11.0218 15.3601 12.0371 14.876 12.6912 14.1401C13.3454 13.4041 13.6529 12.4564 13.6529 11.5201C13.6529 11.0313 13.5644 10.5416 13.3912 10.0784C15.6754 8.57184 18.3979 7.68006 21.3329 7.68006C28.832 7.68006 35.0205 13.3988 35.7646 20.7051C36.373 20.8544 36.9567 21.0768 37.5046 21.3601C37.0702 12.8054 29.9934 5.97339 21.3329 5.97339ZM9.8129 9.38672C10.5951 9.38672 11.0732 9.64933 11.4146 10.0334C11.756 10.4175 11.9462 10.963 11.9462 11.5201C11.9462 12.0771 11.756 12.6227 11.4146 13.0067C11.0732 13.3908 10.5951 13.6534 9.8129 13.6534C9.03068 13.6534 8.55262 13.3908 8.21124 13.0067C7.86985 12.6227 7.67957 12.0771 7.67957 11.5201C7.67957 10.963 7.86985 10.4174 8.21124 10.0334C8.55262 9.64933 9.03068 9.38672 9.8129 9.38672ZM21.3329 11.9467C15.6864 11.9467 11.0929 16.5402 11.0929 22.1867C11.0929 25.6094 12.7873 28.6381 15.3746 30.4984L15.3829 28.2917C13.7914 26.7404 12.7996 24.5786 12.7996 22.1867C12.7996 17.4814 16.6276 13.6534 21.3329 13.6534C25.8556 13.6534 29.5588 17.1932 29.8396 21.6467C30.2193 21.465 30.8145 21.2014 31.4929 20.9684C30.8879 15.8953 26.5664 11.9467 21.3329 11.9467ZM23.2529 22.1867C19.8461 22.1867 17.0662 24.9666 17.0662 28.3734C17.0662 28.4706 17.0768 28.5656 17.0812 28.6617H17.0662V34.1417C17.0667 34.2718 17.0969 34.4001 17.1546 34.5167C17.4303 37.6716 20.0291 40.1817 23.2529 40.1817C24.084 40.1817 24.9015 39.8847 25.5912 39.6151C26.281 39.3454 26.8179 39.0751 26.8179 39.0751C26.8218 39.0729 26.8257 39.0706 26.8296 39.0684C27.3005 38.8215 27.9085 38.6584 28.5862 38.6584C29.264 38.6584 29.872 38.8215 30.3429 39.0684C30.3468 39.0706 30.3507 39.0729 30.3546 39.0751C30.3546 39.0751 30.8915 39.3454 31.5812 39.6151C32.271 39.8847 33.0885 40.1817 33.9196 40.1817C37.1428 40.1817 39.7414 37.6725 40.0179 34.5184C40.0758 34.4013 40.106 34.2724 40.1062 34.1417V28.6617H40.0912C40.0957 28.5656 40.1062 28.4706 40.1062 28.3734C40.1062 24.9666 37.3264 22.1867 33.9196 22.1867C33.0885 22.1867 32.271 22.4837 31.5812 22.7534C30.8915 23.023 30.3546 23.2934 30.3546 23.2934L30.3479 23.2967L30.3429 23.3001C29.872 23.5469 29.264 23.7101 28.5862 23.7101C27.9085 23.7101 27.3005 23.5469 26.8296 23.3001L26.8246 23.2967L26.8179 23.2934C26.8179 23.2934 26.281 23.023 25.5912 22.7534C24.9015 22.4837 24.084 22.1867 23.2529 22.1867ZM23.2529 23.8934C23.5892 23.8934 24.3622 24.1036 24.9712 24.3417C25.5737 24.5772 26.0279 24.8067 26.0379 24.8117C26.765 25.1929 27.6375 25.4167 28.5862 25.4167C29.535 25.4167 30.4074 25.1929 31.1346 24.8117C31.1446 24.8067 31.5988 24.5772 32.2012 24.3417C32.8103 24.1036 33.5833 23.8934 33.9196 23.8934C36.4042 23.8934 38.3996 25.8888 38.3996 28.3734C38.3996 30.858 36.4042 32.8534 33.9196 32.8534C33.5833 32.8534 32.8103 32.6431 32.2012 32.4051C31.5988 32.1695 31.1446 31.9401 31.1346 31.9351C30.4074 31.5539 29.535 31.3301 28.5862 31.3301C27.6375 31.3301 26.765 31.5539 26.0379 31.9351C26.0279 31.9401 25.5737 32.1695 24.9712 32.4051C24.3622 32.6431 23.5892 32.8534 23.2529 32.8534C20.7683 32.8534 18.7729 30.858 18.7729 28.3734C18.7729 25.8888 20.7683 23.8934 23.2529 23.8934ZM23.9479 25.6001C23.7216 25.6001 23.5045 25.69 23.3445 25.85C23.1845 26.01 23.0946 26.2271 23.0946 26.4534C23.0946 26.6797 23.1845 26.8968 23.3445 27.0568C23.5045 27.2168 23.7216 27.3067 23.9479 27.3067C24.1742 27.3067 24.3913 27.2168 24.5513 27.0568C24.7113 26.8968 24.8012 26.6797 24.8012 26.4534C24.8012 26.2271 24.7113 26.01 24.5513 25.85C24.3913 25.69 24.1742 25.6001 23.9479 25.6001ZM31.6279 26.4534C31.4016 26.4534 31.1845 26.5433 31.0245 26.7033C30.8645 26.8634 30.7746 27.0804 30.7746 27.3067C30.7746 27.533 30.8645 27.7501 31.0245 27.9101C31.1845 28.0702 31.4016 28.1601 31.6279 28.1601C31.8542 28.1601 32.0713 28.0702 32.2313 27.9101C32.3913 27.7501 32.4812 27.533 32.4812 27.3067C32.4812 27.0804 32.3913 26.8634 32.2313 26.7033C32.0713 26.5433 31.8542 26.4534 31.6279 26.4534ZM35.0412 26.4534C34.8149 26.4534 34.5979 26.5433 34.4378 26.7033C34.2778 26.8634 34.1879 27.0804 34.1879 27.3067C34.1879 27.533 34.2778 27.7501 34.4378 27.9101C34.5979 28.0702 34.8149 28.1601 35.0412 28.1601C35.2676 28.1601 35.4846 28.0702 35.6446 27.9101C35.8047 27.7501 35.8946 27.533 35.8946 27.3067C35.8946 27.0804 35.8047 26.8634 35.6446 26.7033C35.4846 26.5433 35.2676 26.4534 35.0412 26.4534ZM21.3879 27.3067C21.1616 27.3067 20.9445 27.3966 20.7845 27.5567C20.6245 27.7167 20.5346 27.9337 20.5346 28.1601C20.5346 28.3864 20.6245 28.6034 20.7845 28.7635C20.9445 28.9235 21.1616 29.0134 21.3879 29.0134C21.6142 29.0134 21.8313 28.9235 21.9913 28.7635C22.1513 28.6034 22.2412 28.3864 22.2412 28.1601C22.2412 27.9337 22.1513 27.7167 21.9913 27.5567C21.8313 27.3966 21.6142 27.3067 21.3879 27.3067ZM25.6546 28.1601C25.4283 28.1601 25.2112 28.25 25.0512 28.41C24.8911 28.57 24.8012 28.7871 24.8012 29.0134C24.8012 29.2397 24.8911 29.4568 25.0512 29.6168C25.2112 29.7768 25.4283 29.8667 25.6546 29.8667C25.8809 29.8667 26.0979 29.7768 26.258 29.6168C26.418 29.4568 26.5079 29.2397 26.5079 29.0134C26.5079 28.7871 26.418 28.57 26.258 28.41C26.0979 28.25 25.8809 28.1601 25.6546 28.1601ZM29.0679 28.1601C28.8416 28.1601 28.6245 28.25 28.4645 28.41C28.3045 28.57 28.2146 28.7871 28.2146 29.0134C28.2146 29.2397 28.3045 29.4568 28.4645 29.6168C28.6245 29.7768 28.8416 29.8667 29.0679 29.8667C29.2942 29.8667 29.5113 29.7768 29.6713 29.6168C29.8313 29.4568 29.9212 29.2397 29.9212 29.0134C29.9212 28.7871 29.8313 28.57 29.6713 28.41C29.5113 28.25 29.2942 28.1601 29.0679 28.1601ZM23.0946 29.8667C22.8683 29.8667 22.6512 29.9566 22.4912 30.1167C22.3311 30.2767 22.2412 30.4937 22.2412 30.7201C22.2412 30.9464 22.3311 31.1634 22.4912 31.3235C22.6512 31.4835 22.8683 31.5734 23.0946 31.5734C23.3209 31.5734 23.5379 31.4835 23.698 31.3235C23.858 31.1634 23.9479 30.9464 23.9479 30.7201C23.9479 30.4937 23.858 30.2767 23.698 30.1167C23.5379 29.9566 23.3209 29.8667 23.0946 29.8667ZM34.1879 29.8667C33.9616 29.8667 33.7445 29.9566 33.5845 30.1167C33.4245 30.2767 33.3346 30.4937 33.3346 30.7201C33.3346 30.9464 33.4245 31.1634 33.5845 31.3235C33.7445 31.4835 33.9616 31.5734 34.1879 31.5734C34.4142 31.5734 34.6313 31.4835 34.7913 31.3235C34.9513 31.1634 35.0412 30.9464 35.0412 30.7201C35.0412 30.4937 34.9513 30.2767 34.7913 30.1167C34.6313 29.9566 34.4142 29.8667 34.1879 29.8667ZM18.7729 32.6251C19.9016 33.8137 21.4915 34.5601 23.2529 34.5601C24.084 34.5601 24.9015 34.263 25.5912 33.9934C26.281 33.7237 26.8179 33.4534 26.8179 33.4534L26.8246 33.4501L26.8296 33.4467C27.3005 33.1998 27.9085 33.0367 28.5862 33.0367C29.264 33.0367 29.872 33.1998 30.3429 33.4467L30.3479 33.4501L30.3546 33.4534C30.3546 33.4534 30.8915 33.7237 31.5812 33.9934C32.271 34.263 33.0885 34.5601 33.9196 34.5601C35.681 34.5601 37.2709 33.8137 38.3996 32.6251V34.0384C38.3961 34.0649 38.3939 34.0916 38.3929 34.1184C38.3275 36.5437 36.362 38.4751 33.9196 38.4751C33.5833 38.4751 32.8103 38.2648 32.2012 38.0267C31.5988 37.7912 31.1446 37.5617 31.1346 37.5567C30.4074 37.1756 29.535 36.9517 28.5862 36.9517C27.6375 36.9517 26.765 37.1756 26.0379 37.5567C26.0279 37.5618 25.5737 37.7912 24.9712 38.0267C24.3622 38.2648 23.5892 38.4751 23.2529 38.4751C20.8104 38.4751 18.845 36.5437 18.7796 34.1184C18.7788 34.09 18.7765 34.0616 18.7729 34.0334V32.6251ZM26.5079 34.1334C26.2816 34.1334 26.0645 34.2233 25.9045 34.3833C25.7445 34.5434 25.6546 34.7604 25.6546 34.9867C25.6546 35.213 25.7445 35.4301 25.9045 35.5901C26.0645 35.7502 26.2816 35.8401 26.5079 35.8401C26.7342 35.8401 26.9513 35.7502 27.1113 35.5901C27.2713 35.4301 27.3612 35.213 27.3612 34.9867C27.3612 34.7604 27.2713 34.5434 27.1113 34.3833C26.9513 34.2233 26.7342 34.1334 26.5079 34.1334ZM31.6279 34.9867C31.4016 34.9867 31.1845 35.0766 31.0245 35.2367C30.8645 35.3967 30.7746 35.6137 30.7746 35.8401C30.7746 36.0664 30.8645 36.2834 31.0245 36.4435C31.1845 36.6035 31.4016 36.6934 31.6279 36.6934C31.8542 36.6934 32.0713 36.6035 32.2313 36.4435C32.3913 36.2834 32.4812 36.0664 32.4812 35.8401C32.4812 35.6137 32.3913 35.3967 32.2313 35.2367C32.0713 35.0766 31.8542 34.9867 31.6279 34.9867ZM35.8946 34.9867C35.6683 34.9867 35.4512 35.0766 35.2912 35.2367C35.1311 35.3967 35.0412 35.6137 35.0412 35.8401C35.0412 36.0664 35.1311 36.2834 35.2912 36.4435C35.4512 36.6035 35.6683 36.6934 35.8946 36.6934C36.1209 36.6934 36.3379 36.6035 36.498 36.4435C36.658 36.2834 36.7479 36.0664 36.7479 35.8401C36.7479 35.6137 36.658 35.3967 36.498 35.2367C36.3379 35.0766 36.1209 34.9867 35.8946 34.9867ZM23.0946 35.8401C22.8683 35.8401 22.6512 35.93 22.4912 36.09C22.3311 36.25 22.2412 36.4671 22.2412 36.6934C22.2412 36.9197 22.3311 37.1368 22.4912 37.2968C22.6512 37.4568 22.8683 37.5467 23.0946 37.5467C23.3209 37.5467 23.5379 37.4568 23.698 37.2968C23.858 37.1368 23.9479 36.9197 23.9479 36.6934C23.9479 36.4671 23.858 36.25 23.698 36.09C23.5379 35.93 23.3209 35.8401 23.0946 35.8401Z" fill="#8C8077"/>
</g>
<defs>
<clipPath id="clip0_318_2190">
<rect width="42.6667" height="42.6667" fill="white"/>
</clipPath>
</defs>
</svg>
