<svg width="43" height="43" viewBox="0 0 43 43" fill="none" xmlns="http://www.w3.org/2000/svg">
<g clip-path="url(#clip0_318_2198)">
<path d="M11.9467 1.70667C5.36 1.70667 0 7.06667 0 13.6533C0 16.9467 1.33 19.9433 3.49333 22.1067C3.51 22.1167 3.53 22.1267 3.54667 22.1333C3.57 22.1567 3.57667 22.1933 3.6 22.2133C3.65667 22.2833 3.76 22.4167 3.94667 22.8C4.20667 23.3333 4.52667 24.2033 4.69333 25.4667C4.75333 25.92 4.66667 27.5767 4.45333 29.3333C4.24 31.09 3.93 33.0467 3.62667 34.5067C3.35333 35.8167 3.38 37.0133 3.92 38.0267C4.46 39.04 5.47667 39.76 6.82667 40.16C6.86333 40.1633 6.89667 40.1633 6.93333 40.16L11.1467 40.88C11.1567 40.88 11.1633 40.88 11.1733 40.88C11.42 40.91 12.16 40.9667 12.96 40.88C13.36 40.8367 13.7767 40.78 14.1867 40.5867C14.5967 40.3933 15.0433 40.0333 15.2267 39.4933C15.43 38.89 15.3167 38.25 15.12 37.8133C14.9233 37.3767 14.7133 37.0867 14.5333 36.7467C14.1733 36.0667 13.8333 35.1933 14.3467 32.9867C14.79 31.0833 15.2733 29.58 15.84 27.7333C16.3133 26.19 16.9667 25.3667 17.4667 24.9067C17.9667 24.4467 18.2133 24.4 18.2133 24.4C18.2967 24.3767 18.38 24.34 18.4533 24.2933L32.64 20.7733C33.0167 20.6767 33.28 20.3367 33.28 19.9467V7.36C33.28 6.97 33.0167 6.63 32.64 6.53333L15.6 2.29333L15.5467 2.26667V2.29333C14.41 1.93333 13.2067 1.70667 11.9467 1.70667ZM11.9467 3.41333C13.04 3.41333 14.1033 3.6 15.0933 3.92C15.11 3.92 15.13 3.92 15.1467 3.92L31.5733 8.02667V19.28L15.1467 23.3867C15.13 23.3867 15.11 23.3867 15.0933 23.3867C14.1033 23.7067 13.04 23.8933 11.9467 23.8933C9.15 23.8933 6.62 22.7733 4.77333 20.96C4.74667 20.94 4.72 20.9233 4.69333 20.9067C4.67667 20.89 4.65667 20.87 4.64 20.8533C4.62333 20.8333 4.60667 20.8167 4.58667 20.8C2.79667 18.9567 1.70667 16.43 1.70667 13.6533C1.70667 7.99 6.28333 3.41333 11.9467 3.41333ZM11.9467 7.68C8.65667 7.68 5.97333 10.3633 5.97333 13.6533C5.97333 16.9433 8.65667 19.6267 11.9467 19.6267C15.2367 19.6267 17.92 16.9433 17.92 13.6533C17.92 10.3633 15.2367 7.68 11.9467 7.68ZM34.8 8.50667C34.35 8.59667 34.04 9.01333 34.0867 9.47333C34.1367 9.93 34.5267 10.2733 34.9867 10.2667C36.9667 10.2667 37.2833 10.5633 37.9467 10.9867C38.61 11.41 39.6233 11.9733 41.8133 11.9733C42.1567 12.02 42.4967 11.8633 42.6833 11.5733C42.87 11.28 42.87 10.9067 42.6833 10.6133C42.4967 10.3233 42.1567 10.1667 41.8133 10.2133C39.8667 10.2133 39.5733 9.92333 38.9067 9.49333C38.24 9.06333 37.2067 8.50667 34.9867 8.50667C34.9233 8.5 34.8633 8.5 34.8 8.50667ZM11.9467 9.38667C14.3133 9.38667 16.2133 11.2867 16.2133 13.6533C16.2133 16.02 14.3133 17.92 11.9467 17.92C9.58 17.92 7.68 16.02 7.68 13.6533C7.68 11.2867 9.58 9.38667 11.9467 9.38667ZM34.8 12.7733C34.35 12.8633 34.04 13.28 34.0867 13.74C34.1367 14.1967 34.5267 14.54 34.9867 14.5333C36.9667 14.5333 37.2833 14.83 37.9467 15.2533C38.61 15.6767 39.6233 16.24 41.8133 16.24C42.1567 16.2867 42.4967 16.13 42.6833 15.84C42.87 15.5467 42.87 15.1733 42.6833 14.88C42.4967 14.59 42.1567 14.4333 41.8133 14.48C39.8667 14.48 39.5733 14.19 38.9067 13.76C38.24 13.33 37.2067 12.7733 34.9867 12.7733C34.9233 12.7667 34.8633 12.7667 34.8 12.7733ZM34.8 17.04C34.35 17.13 34.04 17.5467 34.0867 18.0067C34.1367 18.4633 34.5267 18.8067 34.9867 18.8C36.9667 18.8 37.2833 19.0967 37.9467 19.52C38.61 19.9433 39.6233 20.5067 41.8133 20.5067C42.1567 20.5533 42.4967 20.3967 42.6833 20.1067C42.87 19.8133 42.87 19.44 42.6833 19.1467C42.4967 18.8567 42.1567 18.7 41.8133 18.7467C39.8667 18.7467 39.5733 18.4567 38.9067 18.0267C38.24 17.5967 37.2067 17.04 34.9867 17.04C34.9233 17.0333 34.8633 17.0333 34.8 17.04ZM6.18667 24.1067C7.9 25.0567 9.85333 25.6 11.9467 25.6C13.06 25.6 14.1267 25.41 15.1467 25.12C14.8067 25.6933 14.4733 26.4 14.2133 27.2533C13.65 29.0933 13.1533 30.6167 12.6933 32.5867C12.1133 35.08 12.5167 36.61 13.0133 37.5467C13.2633 38.0167 13.4867 38.3167 13.5733 38.5067C13.66 38.6967 13.68 38.7 13.6 38.9333C13.6 38.93 13.61 38.9733 13.4667 39.04C13.3233 39.1067 13.0567 39.17 12.7733 39.2C12.2167 39.26 11.5967 39.1933 11.4133 39.1733H11.3867L7.30667 38.5067C7.29333 38.5033 7.29333 38.4833 7.28 38.48C6.23 38.16 5.69 37.75 5.41333 37.2267C5.13333 36.6967 5.08 35.9433 5.30667 34.8533C5.62667 33.3267 5.94 31.3267 6.16 29.52C6.38 27.7133 6.52667 26.2167 6.4 25.2533C6.34667 24.8367 6.26667 24.46 6.18667 24.1067Z" fill="#8C8077"/>
</g>
<defs>
<clipPath id="clip0_318_2198">
<rect width="42.6667" height="42.6667" fill="white"/>
</clipPath>
</defs>
</svg>
