<svg width="43" height="43" viewBox="0 0 43 43" fill="none" xmlns="http://www.w3.org/2000/svg">
<g clip-path="url(#clip0_318_2206)">
<path d="M19.5557 14.2222C23.1113 8.88888 16.0001 8.88888 19.5557 3.55554" stroke="#8C8077" stroke-width="3.55556" stroke-linecap="round" stroke-linejoin="round"/>
<path d="M27.5557 14.2222C31.1113 8.88888 24.0001 8.88888 27.5557 3.55554" stroke="#8C8077" stroke-width="3.55556" stroke-linecap="round" stroke-linejoin="round"/>
<path d="M10.666 17.7778H10.6821" stroke="#8C8077" stroke-width="3.55556" stroke-linecap="round" stroke-linejoin="round"/>
<path d="M10.666 24.8889H10.6821" stroke="#8C8077" stroke-width="3.55556" stroke-linecap="round" stroke-linejoin="round"/>
<path d="M17.7773 28.4444V21.3333" stroke="#8C8077" stroke-width="3.55556" stroke-linecap="round" stroke-linejoin="round"/>
<path d="M24.8896 28.4444V21.3333" stroke="#8C8077" stroke-width="3.55556" stroke-linecap="round" stroke-linejoin="round"/>
<path d="M32 28.4444V21.3333" stroke="#8C8077" stroke-width="3.55556" stroke-linecap="round" stroke-linejoin="round"/>
<path d="M35.5547 10.6666C36.4977 10.6666 37.402 11.0412 38.0688 11.708C38.7356 12.3748 39.1102 13.2792 39.1102 14.2222V32C39.1102 32.943 38.7356 33.8473 38.0688 34.5141C37.402 35.1809 36.4977 35.5555 35.5547 35.5555H7.11024C6.16725 35.5555 5.26288 35.1809 4.59609 34.5141C3.92929 33.8473 3.55469 32.943 3.55469 32V14.2222C3.55469 13.2792 3.92929 12.3748 4.59609 11.708C5.26288 11.0412 6.16725 10.6666 7.11024 10.6666H12.4436" stroke="#8C8077" stroke-width="3.55556" stroke-linecap="round" stroke-linejoin="round"/>
<path d="M8.88867 35.5555V39.1111" stroke="#8C8077" stroke-width="3.55556" stroke-linecap="round" stroke-linejoin="round"/>
<path d="M33.7773 35.5555V39.1111" stroke="#8C8077" stroke-width="3.55556" stroke-linecap="round" stroke-linejoin="round"/>
</g>
<defs>
<clipPath id="clip0_318_2206">
<rect width="42.6667" height="42.6667" fill="white"/>
</clipPath>
</defs>
</svg>
