<svg width="43" height="43" viewBox="0 0 43 43" fill="none" xmlns="http://www.w3.org/2000/svg">
<g clip-path="url(#clip0_318_2177)">
<path d="M14.5422 29.8666L8.88887 24.1243C8.54258 23.785 8.13053 23.52 7.67806 23.3457C7.22558 23.1715 6.74225 23.0916 6.25776 23.111C5.31477 23.111 4.4104 23.4856 3.74361 24.1524C3.07681 24.8192 2.70221 25.7236 2.70221 26.6666C2.69948 27.1387 2.79083 27.6067 2.97091 28.0432C3.151 28.4797 3.41622 28.8759 3.7511 29.2088L11.1822 36.6399H36.6044C37.051 36.6423 37.4936 36.556 37.9066 36.3862C38.3197 36.2164 38.6949 35.9664 39.0107 35.6506C39.3265 35.3348 39.5765 34.9596 39.7463 34.5465C39.9161 34.1335 40.0023 33.6909 40 33.2443C40 32.7993 39.912 32.3586 39.7412 31.9476C39.5703 31.5366 39.3199 31.1635 39.0044 30.8496C38.6888 30.5357 38.3144 30.2873 37.9025 30.1186C37.4906 29.9499 37.0495 29.8642 36.6044 29.8666H14.5422Z" stroke="#8C8077" stroke-width="2.66667" stroke-miterlimit="10"/>
<path d="M11.1465 41.7421V36.6399" stroke="#8C8077" stroke-width="2.66667" stroke-miterlimit="10"/>
<path d="M34.915 41.7421V36.6399" stroke="#8C8077" stroke-width="2.66667" stroke-miterlimit="10"/>
<path d="M36.6047 14.5955H6.0625L21.3336 2.70215L36.6047 14.5955Z" stroke="#8C8077" stroke-width="2.66667" stroke-miterlimit="10"/>
<path d="M21.333 29.8665V14.5776" stroke="#8C8077" stroke-width="2.66667" stroke-miterlimit="10"/>
<path d="M21.333 41.7421V36.6399" stroke="#8C8077" stroke-width="2.66667" stroke-miterlimit="10"/>
</g>
<defs>
<clipPath id="clip0_318_2177">
<rect width="42.6667" height="42.6667" fill="white"/>
</clipPath>
</defs>
</svg>
