<svg width="43" height="43" viewBox="0 0 43 43" fill="none" xmlns="http://www.w3.org/2000/svg">
<g clip-path="url(#clip0_318_2134)">
<path d="M17.9248 28.4446V14.2224H23.8519C25.4875 14.2224 26.8137 15.8135 26.8137 17.778C26.8137 19.7424 25.4875 21.3335 23.8519 21.3335H17.9248" stroke="#8C8077" stroke-width="3.55556" stroke-linecap="round" stroke-linejoin="round"/>
<path d="M5.48145 21.3335C5.48145 23.4346 5.8953 25.5152 6.69937 27.4564C7.50345 29.3976 8.682 31.1615 10.1677 32.6472C11.6535 34.1329 13.4173 35.3115 15.3585 36.1156C17.2997 36.9196 19.3803 37.3335 21.4814 37.3335C23.5826 37.3335 25.6632 36.9196 27.6044 36.1156C29.5456 35.3115 31.3094 34.1329 32.7952 32.6472C34.2809 31.1615 35.4594 29.3976 36.2635 27.4564C37.0676 25.5152 37.4814 23.4346 37.4814 21.3335C37.4814 17.09 35.7957 13.0204 32.7952 10.0198C29.7946 7.01921 25.7249 5.3335 21.4814 5.3335C17.238 5.3335 13.1683 7.01921 10.1677 10.0198C7.16715 13.0204 5.48145 17.09 5.48145 21.3335Z" stroke="#8C8077" stroke-width="3.55556" stroke-linecap="round" stroke-linejoin="round"/>
</g>
<defs>
<clipPath id="clip0_318_2134">
<rect width="42.6667" height="42.6667" fill="white"/>
</clipPath>
</defs>
</svg>
