<svg width="43" height="43" viewBox="0 0 43 43" fill="none" xmlns="http://www.w3.org/2000/svg">
<path d="M33.6288 8.88892C32.6858 8.88892 31.7814 9.26352 31.1146 9.93031C30.4478 10.5971 30.0732 11.5015 30.0732 12.4445V32" stroke="#8C8077" stroke-width="3.55556" stroke-linecap="round" stroke-linejoin="round"/>
<path d="M3.40723 31.9999C4.47389 32.8888 5.54056 33.7777 7.85167 33.7777C12.2961 33.7777 12.2961 30.2222 16.7406 30.2222C21.3628 30.2222 21.0072 33.7777 25.6294 33.7777C30.0739 33.7777 30.0739 30.2222 34.5183 30.2222C36.8294 30.2222 37.8961 31.1111 38.9628 31.9999" stroke="#8C8077" stroke-width="3.55556" stroke-linecap="round" stroke-linejoin="round"/>
<path d="M12.2959 23.1113H30.0737" stroke="#8C8077" stroke-width="3.55556" stroke-linecap="round" stroke-linejoin="round"/>
<path d="M12.2959 16H30.0737" stroke="#8C8077" stroke-width="3.55556" stroke-linecap="round" stroke-linejoin="round"/>
<path d="M15.8515 8.88892C14.9085 8.88892 14.0041 9.26352 13.3373 9.93031C12.6705 10.5971 12.2959 11.5015 12.2959 12.4445V32" stroke="#8C8077" stroke-width="3.55556" stroke-linecap="round" stroke-linejoin="round"/>
</svg>
