<svg width="41" height="41" viewBox="0 0 41 41" fill="none" xmlns="http://www.w3.org/2000/svg">
<path d="M3.21387 33.5484V20.1291C3.21387 19.2393 3.56732 18.386 4.19648 17.7568C4.82563 17.1277 5.67895 16.7742 6.56871 16.7742M6.56871 16.7742H33.4074M6.56871 16.7742V10.0646C6.56871 9.1748 6.92216 8.32148 7.55132 7.69233C8.18047 7.06317 9.03379 6.70972 9.92354 6.70972H30.0526C30.9423 6.70972 31.7957 7.06317 32.4248 7.69233C33.054 8.32148 33.4074 9.1748 33.4074 10.0646V16.7742M33.4074 16.7742C34.2972 16.7742 35.1505 17.1277 35.7796 17.7568C36.4088 18.386 36.7623 19.2393 36.7623 20.1291V33.5484M19.9881 6.70972V16.7742M3.21387 30.1936H36.7623" stroke="#8C8077" stroke-width="3.35484" stroke-linecap="round" stroke-linejoin="round"/>
</svg>
