<svg width="43" height="43" viewBox="0 0 43 43" fill="none" xmlns="http://www.w3.org/2000/svg">
<path d="M5.77832 35.5555V21.3333C5.77832 20.3903 6.15292 19.4859 6.81972 18.8191C7.48651 18.1524 8.39088 17.7778 9.33388 17.7778M9.33388 17.7778H34.2228M9.33388 17.7778V10.6666C9.33388 9.72365 9.70848 8.81928 10.3753 8.15248C11.0421 7.48569 11.9464 7.11108 12.8894 7.11108H30.6672C31.6102 7.11108 32.5146 7.48569 33.1814 8.15248C33.8482 8.81928 34.2228 9.72365 34.2228 10.6666V17.7778M34.2228 17.7778C35.1658 17.7778 36.0701 18.1524 36.7369 18.8191C37.4037 19.4859 37.7783 20.3903 37.7783 21.3333V35.5555M5.77832 32H37.7783" stroke="#8C8077" stroke-width="3.55556" stroke-linecap="round" stroke-linejoin="round"/>
</svg>
