<svg width="43" height="43" viewBox="0 0 43 43" fill="none" xmlns="http://www.w3.org/2000/svg">
<g clip-path="url(#clip0_318_2101)">
<path d="M7.25868 19.5554C8.20167 19.5554 9.10604 19.93 9.77284 20.5968C10.4396 21.2636 10.8142 22.168 10.8142 23.111V24.8888H32.1476V23.111C32.1476 22.168 32.5222 21.2636 33.189 20.5968C33.8558 19.93 34.7601 19.5554 35.7031 19.5554C36.6461 19.5554 37.5505 19.93 38.2173 20.5968C38.8841 21.2636 39.2587 22.168 39.2587 23.111V31.9999C39.2587 32.4714 39.0714 32.9235 38.738 33.2569C38.4046 33.5903 37.9524 33.7776 37.4809 33.7776H5.4809C5.00941 33.7776 4.55722 33.5903 4.22382 33.2569C3.89043 32.9235 3.70313 32.4714 3.70312 31.9999V23.111C3.70312 22.168 4.07773 21.2636 4.74452 20.5968C5.41132 19.93 6.31569 19.5554 7.25868 19.5554Z" stroke="#8C8077" stroke-width="3.55556" stroke-linecap="round" stroke-linejoin="round"/>
<path d="M7.25781 19.5556V14.2222C7.25781 12.8078 7.81972 11.4512 8.81991 10.451C9.8201 9.45082 11.1767 8.88892 12.5911 8.88892H30.3689C31.7834 8.88892 33.14 9.45082 34.1402 10.451C35.1404 11.4512 35.7023 12.8078 35.7023 14.2222V19.5556" stroke="#8C8077" stroke-width="3.55556" stroke-linecap="round" stroke-linejoin="round"/>
<path d="M21.4814 8.88892V24.8889" stroke="#8C8077" stroke-width="3.55556" stroke-linecap="round" stroke-linejoin="round"/>
</g>
<defs>
<clipPath id="clip0_318_2101">
<rect width="42.6667" height="42.6667" fill="white"/>
</clipPath>
</defs>
</svg>
